<?xml version="1.0" encoding="UTF-8" standalone="no"?>
<!DOCTYPE svg PUBLIC "-//W3C//DTD SVG 1.1//EN" "http://www.w3.org/Graphics/SVG/1.1/DTD/svg11.dtd">
<svg xmlns="http://www.w3.org/2000/svg" version="1.1" viewBox="0.00 0.00 512.00 512.00">
<path fill="#000000" d="
  M 256.30 243.67
  L 343.62 156.35
  A 0.40 0.40 0.0 0 1 344.19 156.35
  L 355.57 167.93
  A 0.40 0.40 0.0 0 1 355.57 168.49
  L 268.41 255.72
  A 0.40 0.40 0.0 0 0 268.41 256.28
  L 355.57 343.51
  A 0.40 0.40 0.0 0 1 355.57 344.07
  L 344.19 355.65
  A 0.40 0.40 0.0 0 1 343.62 355.65
  L 256.29 268.40
  A 0.40 0.40 0.0 0 0 255.73 268.40
  L 168.41 355.65
  A 0.40 0.40 0.0 0 1 167.84 355.65
  L 156.46 344.07
  A 0.40 0.40 0.0 0 1 156.46 343.51
  L 243.61 256.28
  A 0.40 0.40 0.0 0 0 243.61 255.72
  L 156.46 168.49
  A 0.40 0.40 0.0 0 1 156.46 167.93
  L 167.84 156.35
  A 0.40 0.40 0.0 0 1 168.41 156.35
  L 255.74 243.67
  A 0.40 0.40 0.0 0 0 256.30 243.67
  Z"
/>
</svg>
