<?xml version="1.0" encoding="UTF-8" standalone="no"?>
<!DOCTYPE svg PUBLIC "-//W3C//DTD SVG 1.1//EN" "http://www.w3.org/Graphics/SVG/1.1/DTD/svg11.dtd">
<svg xmlns="http://www.w3.org/2000/svg" version="1.1" viewBox="0.00 0.00 512.00 512.00">
<g stroke-width="2.00" fill="none" stroke-linecap="butt">
<path stroke="#acac74" vector-effect="non-scaling-stroke" d="
  M 249.76 52.87
  L 252.95 62.46"
/>
<path stroke="#b9b474" vector-effect="non-scaling-stroke" d="
  M 264.44 120.78
  Q 256.69 120.96 248.75 120.67
  Q 248.69 120.29 247.96 120.31"
/>
<path stroke="#a2d481" vector-effect="non-scaling-stroke" d="
  M 359.11 32.13
  Q 355.98 33.17 353.05 34.59
  Q 347.91 37.09 347.16 37.39
  Q 325.68 46.20 302.28 45.56
  Q 282.02 45.01 263.34 36.89"
/>
<path stroke="#a2d481" vector-effect="non-scaling-stroke" d="
  M 186.64 113.70
  Q 174.92 119.80 166.64 129.15
  Q 158.89 137.90 153.25 148.08
  C 151.11 151.96 149.54 155.88 147.82 159.90
  Q 145.82 164.54 144.54 169.00
  Q 143.39 173.05 142.15 177.22
  C 140.49 182.80 139.68 188.63 138.58 194.23
  Q 137.75 198.48 137.23 202.95
  Q 134.29 228.45 134.83 253.52
  Q 135.09 265.54 135.66 277.29
  Q 136.36 291.98 138.67 308.76
  Q 146.23 363.85 163.12 416.75
  C 169.70 437.36 177.79 458.45 188.35 477.39
  Q 195.18 489.65 202.47 497.87
  Q 205.92 501.76 209.49 504.72
  Q 210.99 505.96 216.16 509.25"
/>
<path stroke="#a2d481" vector-effect="non-scaling-stroke" d="
  M 308.96 510.83
  L 309.03 510.28
  Q 309.11 509.71 309.53 509.32
  Q 319.33 500.17 326.88 489.09
  Q 335.75 476.04 344.53 458.70
  C 350.07 447.75 335.42 440.92 330.32 450.94
  Q 323.74 463.90 317.41 473.99
  Q 311.77 482.99 303.35 492.59
  Q 294.58 502.59 282.41 506.22"
/>
</g>
<path fill="#c38c66" d="
  M 212.07 0.00
  L 220.30 0.00
  Q 228.36 8.25 234.07 18.49
  Q 243.20 34.88 249.76 52.87
  L 252.95 62.46
  Q 259.42 84.31 262.57 106.77
  Q 263.53 113.65 264.44 120.78
  Q 256.69 120.96 248.75 120.67
  Q 248.69 120.29 247.96 120.31
  Q 244.62 86.43 233.06 54.46
  Q 230.72 47.97 226.54 39.19
  C 221.98 29.61 216.46 20.63 209.88 12.72
  C 206.42 8.56 207.27 2.83 212.07 0.00
  Z"
/>
<path fill="#aedb81" d="
  M 359.11 32.13
  Q 355.98 33.17 353.05 34.59
  Q 347.91 37.09 347.16 37.39
  Q 325.68 46.20 302.28 45.56
  Q 282.02 45.01 263.34 36.89
  Q 266.16 34.41 268.33 32.63
  Q 296.90 9.12 333.50 7.25
  Q 348.10 6.50 365.10 11.04
  C 368.70 12.00 371.41 14.83 369.41 18.64
  Q 366.65 23.90 359.11 32.13
  Z"
/>
<path fill="#95cc81" d="
  M 359.11 32.13
  Q 350.97 41.13 341.32 47.55
  Q 308.89 69.09 269.74 65.83
  Q 263.43 65.30 252.95 62.46
  L 249.76 52.87
  Q 256.10 43.56 263.34 36.89
  Q 282.02 45.01 302.28 45.56
  Q 325.68 46.20 347.16 37.39
  Q 347.91 37.09 353.05 34.59
  Q 355.98 33.17 359.11 32.13
  Z"
/>
<path fill="#95cc81" d="
  M 186.64 113.70
  Q 174.92 119.80 166.64 129.15
  Q 158.89 137.90 153.25 148.08
  C 151.11 151.96 149.54 155.88 147.82 159.90
  Q 145.82 164.54 144.54 169.00
  Q 143.39 173.05 142.15 177.22
  C 140.49 182.80 139.68 188.63 138.58 194.23
  Q 137.75 198.48 137.23 202.95
  Q 134.29 228.45 134.83 253.52
  Q 135.09 265.54 135.66 277.29
  Q 136.36 291.98 138.67 308.76
  Q 146.23 363.85 163.12 416.75
  C 169.70 437.36 177.79 458.45 188.35 477.39
  Q 195.18 489.65 202.47 497.87
  Q 205.92 501.76 209.49 504.72
  Q 210.99 505.96 216.16 509.25
  Q 190.59 514.65 167.87 504.63
  C 152.19 497.71 138.40 486.87 125.79 474.29
  C 114.00 462.53 103.10 448.96 93.62 435.00
  Q 67.56 396.66 50.02 351.30
  Q 41.63 329.59 36.64 309.83
  Q 25.96 267.59 30.07 223.73
  Q 31.10 212.79 34.23 200.40
  Q 45.99 153.93 87.58 129.64
  C 102.48 120.94 117.93 114.71 134.96 112.11
  Q 141.44 111.13 149.88 110.93
  Q 158.47 110.74 164.88 111.12
  Q 172.35 111.56 186.64 113.70
  Z"
/>
<path fill="#aedb81" d="
  M 308.96 510.83
  L 309.03 510.28
  Q 309.11 509.71 309.53 509.32
  Q 319.33 500.17 326.88 489.09
  Q 335.75 476.04 344.53 458.70
  C 350.07 447.75 335.42 440.92 330.32 450.94
  Q 323.74 463.90 317.41 473.99
  Q 311.77 482.99 303.35 492.59
  Q 294.58 502.59 282.41 506.22
  Q 262.81 501.63 242.50 504.03
  Q 236.34 504.76 216.16 509.25
  Q 210.99 505.96 209.49 504.72
  Q 205.92 501.76 202.47 497.87
  Q 195.18 489.65 188.35 477.39
  C 177.79 458.45 169.70 437.36 163.12 416.75
  Q 146.23 363.85 138.67 308.76
  Q 136.36 291.98 135.66 277.29
  Q 135.09 265.54 134.83 253.52
  Q 134.29 228.45 137.23 202.95
  Q 137.75 198.48 138.58 194.23
  C 139.68 188.63 140.49 182.80 142.15 177.22
  Q 143.39 173.05 144.54 169.00
  Q 145.82 164.54 147.82 159.90
  C 149.54 155.88 151.11 151.96 153.25 148.08
  Q 158.89 137.90 166.64 129.15
  Q 174.92 119.80 186.64 113.70
  Q 209.35 117.38 233.13 119.87
  Q 237.42 120.31 247.53 120.75
  Q 247.77 120.76 247.95 120.59
  Q 248.19 120.35 247.96 120.31
  Q 248.69 120.29 248.75 120.67
  Q 256.69 120.96 264.44 120.78
  Q 283.51 119.98 302.25 117.23
  Q 327.30 113.56 342.01 111.90
  C 362.03 109.64 381.96 111.15 401.11 118.14
  C 417.19 124.01 433.23 133.17 446.08 144.85
  C 475.56 171.63 484.57 209.84 484.03 249.50
  Q 483.72 271.85 480.07 292.51
  Q 476.92 310.30 470.47 330.00
  Q 450.16 392.08 413.84 442.76
  Q 403.03 457.83 388.73 472.67
  Q 383.63 477.98 374.77 485.58
  Q 357.64 500.28 338.76 506.97
  Q 325.12 511.81 308.96 510.83
  Z"
/>
<path fill="#95cc81" d="
  M 308.96 510.83
  Q 295.72 509.78 282.41 506.22
  Q 294.58 502.59 303.35 492.59
  Q 311.77 482.99 317.41 473.99
  Q 323.74 463.90 330.32 450.94
  C 335.42 440.92 350.07 447.75 344.53 458.70
  Q 335.75 476.04 326.88 489.09
  Q 319.33 500.17 309.53 509.32
  Q 309.11 509.71 309.03 510.28
  L 308.96 510.83
  Z"
/>
</svg>
